<svg id="Layer_1" data-name="Layer 1" xmlns="http://www.w3.org/2000/svg" viewBox="0 0 2000 2000"><path d="M1508.06,829.14q-.84,14.88-.85,29.94a515.85,515.85,0,0,0,206.69,413.26l-183.27,115.14-336.35,211.3-193.77,121.71L806.77,1598.78,472.84,1389,289.32,1273.72a518.85,518.85,0,0,0,139.22-156A514,514,0,0,0,497.9,859.08q0-15.06-.86-29.94H377.42L271.08,623H664.72a719.75,719.75,0,0,1,38.85,206.12q.58,14.91.6,29.94a719,719,0,0,1-100.86,368.43l296.37,186.2v-937H195.6L301.93,270.6H1698.07L1804.4,476.73H1105.8v934.18l294.9-185.26a718.9,718.9,0,0,1-99.77-366.57q0-15,.61-29.94A720.08,720.08,0,0,1,1340.38,623h389.67L1623.71,829.14Z"/></svg>